<?xml version="1.0" encoding="utf-8"?>
<!-- Generator: Adobe Illustrator 19.0.0, SVG Export Plug-In . SVG Version: 6.00 Build 0)  -->
<svg version="1.1" xmlns="http://www.w3.org/2000/svg" xmlns:xlink="http://www.w3.org/1999/xlink" x="0px" y="0px"
	 viewBox="0 0 64 64" style="enable-background:new 0 0 64 64;" xml:space="preserve">
<style type="text/css">
	.st0{display:none;}
	.st1{display:inline;fill:#FFFFFF;}
	.st2{display:inline;fill:none;stroke:#4C5159;stroke-width:2;stroke-miterlimit:10;}
	.st3{display:inline;}
	.st4{fill:none;stroke:#4C5159;stroke-width:2;stroke-miterlimit:10;}
	.st5{display:inline;fill:none;stroke:#4C5159;stroke-width:2;stroke-miterlimit:10;stroke-dasharray:1.9857,1.9857;}
	.st6{fill:#4C5159;}
	.st7{font-family:'Montserrat-Bold';}
	.st8{font-size:7px;}
	.st9{display:inline;fill:#74E2F0;}
	.st10{display:inline;fill:#FBDA73;}
	.st11{display:inline;fill:#F08E70;}
</style>
<g id="bg" class="st0">
	<rect id="XMLID_119_" x="-218" y="-268.2" class="st1" width="500" height="600.3"/>
</g>
<g id="guideline" class="st0">
</g>
<g id="icons">
	<g id="XMLID_7_" class="st0">
		<path id="XMLID_4_" class="st2" d="M44.7,45.1H19.3c-0.1,0-0.2-0.1-0.2-0.2V19c0-0.1,0.1-0.2,0.2-0.2h25.4c0.1,0,0.2,0.1,0.2,0.2
			v25.9C44.9,45,44.8,45.1,44.7,45.1z"/>
		<polyline id="XMLID_14_" class="st2" points="41.5,41.6 22.5,41.6 22.5,22.3 		"/>
		<polyline id="XMLID_8_" class="st2" points="22.1,54.6 22.1,50 19.9,47.3 19.9,45.1 		"/>
		<polyline id="XMLID_13_" class="st2" points="41.6,54.6 41.6,50 43.8,47.3 43.8,45.1 		"/>
		<line id="XMLID_9_" class="st2" x1="22.1" y1="49.9" x2="33.3" y2="49.9"/>
		<polyline id="XMLID_21_" class="st2" points="22.1,9.4 22.1,14 19.9,16.7 19.9,18.9 		"/>
		<polyline id="XMLID_16_" class="st2" points="41.6,9.4 41.6,14 43.8,16.7 43.8,18.9 		"/>
		<line id="XMLID_15_" class="st2" x1="22.1" y1="14.1" x2="33.3" y2="14.1"/>
		<polyline id="XMLID_25_" class="st2" points="24.3,26.3 26.8,26.3 29.5,31 33.3,22.8 35.6,26.3 37.8,26.3 		"/>
		<line id="XMLID_29_" class="st2" x1="39" y1="26.3" x2="41.6" y2="26.3"/>
		<path id="XMLID_152_" class="st2" d="M40.5,33.4c0-1.3-1.1-2.4-2.4-2.4c-0.7,0-1.3,0.3-1.7,0.7c-0.4-0.4-1-0.7-1.7-0.7
			c-1.3,0-2.4,1.1-2.4,2.4c0,0.6,0.3,1.2,0.7,1.7l3.4,3.4l3.5-3.5c0,0,0.1-0.2,0.1-0.2C40.3,34.4,40.5,34,40.5,33.4z"/>
		<path id="XMLID_44_" class="st2" d="M44.9,29.5h2.5c0.1,0,0.2,0.1,0.2,0.2V35c0,0.1-0.1,0.2-0.2,0.2h-2.5"/>
		<path id="XMLID_40_" class="st2" d="M19.1,23.5h-2.5c-0.1,0-0.2,0.1-0.2,0.2V29c0,0.1,0.1,0.2,0.2,0.2h2.5"/>
		<path id="XMLID_49_" class="st2" d="M19.1,35.5h-2.5c-0.1,0-0.2,0.1-0.2,0.2V41c0,0.1,0.1,0.2,0.2,0.2h2.5"/>
	</g>
	<g id="XMLID_56_" class="st0">
		<path id="XMLID_51_" class="st2" d="M44.9,50.3c2.3-2.9,3.7-6.5,3.7-10.5v-3.7H15.4v3.7c0,4,1.4,7.6,3.7,10.5l0,4.3h25.8V50.3z"/>
		<line id="XMLID_53_" class="st2" x1="19.1" y1="50.4" x2="29.9" y2="50.4"/>
		<path id="XMLID_55_" class="st2" d="M16.9,35.8c0-4.9,4-8.9,8.9-8.9c4.9,0,8.9,4,8.9,8.9"/>
		<path id="XMLID_52_" class="st2" d="M21.8,35.8c0-2.2,1.8-4.1,4.1-4.1c2.2,0,4.1,1.8,4.1,4.1"/>
		<path id="XMLID_54_" class="st2" d="M31.8,28.9c1.6-1.4,3.6-2.2,5.9-2.2c5,0,9,4,9,9"/>
		<path id="XMLID_57_" class="st2" d="M36.3,31.9c0.4-0.2,0.9-0.2,1.4-0.2c2.3,0,4.1,1.8,4.1,4.1"/>
		<g id="XMLID_105_" class="st3">
			<g id="XMLID_97_">
				<path id="XMLID_108_" class="st4" d="M39.6,13.7c0,0,0.8,5.5-2.1,8.4c-2.9,2.9-8.4,2.1-8.4,2.1s-0.8-5.5,2.1-8.4
					S39.6,13.7,39.6,13.7z"/>
			</g>
			<g id="XMLID_103_">
				<path id="XMLID_104_" class="st4" d="M27.1,22.4c-1.2-1.4-2.5-3.4-2.4-5.6c0-4.1,4.5-7.4,4.5-7.4s1.9,1.4,3.2,3.6"/>
			</g>
		</g>
	</g>
	<g id="XMLID_79_" class="st0">
		<g id="XMLID_70_" class="st3">
			<circle id="XMLID_59_" class="st4" cx="18.3" cy="42.9" r="8.5"/>
			<circle id="XMLID_66_" class="st4" cx="46.5" cy="42.9" r="8.5"/>
			<path id="XMLID_68_" class="st4" d="M31.4,45.1h2.8c0.1,0,0.1-0.1,0.1-0.1V33.4l-5.9-3.8c0,0,0-0.1,0-0.1l4.3-4.4
				c0-0.1,0.1,0,0.2,0l2.7,3.8l10.1,0.4c0.1,0,0.2-0.1,0.2-0.1v-2.1c0-0.1-0.1-0.1-0.1-0.1L38,26.4l-4.6-7c-0.7-1-2.2-1.2-3-0.3
				l-8.5,8.5c-0.2,0.2-0.3,0.4-0.3,0.7v2.4c0,0.3,0.2,0.7,0.5,0.8l8.4,5l1,8.4C31.3,45,31.4,45.1,31.4,45.1z"/>
			<circle id="XMLID_67_" class="st4" cx="37.5" cy="16" r="3.4"/>
			<line id="XMLID_64_" class="st4" x1="17.2" y1="42.9" x2="19.5" y2="42.9"/>
			<line id="XMLID_62_" class="st4" x1="45.3" y1="42.9" x2="47.6" y2="42.9"/>
			<line id="XMLID_69_" class="st4" x1="21.5" y1="42.9" x2="29.5" y2="42.9"/>
			<polyline id="XMLID_65_" class="st4" points="18.3,40.8 18.3,39 22.3,33.5 			"/>
			<polyline id="XMLID_71_" class="st4" points="46.5,40.8 46.5,38 41.9,32.8 41.9,30.6 			"/>
		</g>
		<line id="XMLID_75_" class="st2" x1="9.1" y1="12.6" x2="30.8" y2="12.6"/>
		<line id="XMLID_72_" class="st2" x1="13.2" y1="17.6" x2="26.8" y2="17.6"/>
		<line id="XMLID_77_" class="st2" x1="15.5" y1="22.6" x2="22.8" y2="22.6"/>
	</g>
	<g id="XMLID_92_" class="st0">
		<path id="XMLID_85_" class="st2" d="M47.1,20.8c0.9,1.9,1.4,4.1,1.4,6.3v2.2h-9.9"/>
		<path id="XMLID_73_" class="st2" d="M29.4,29.3H18.9v-2.2c0-8.2,6.6-14.8,14.8-14.8l0,0c3.7,0,7.1,1.4,9.7,3.6"/>
		<path id="XMLID_84_" class="st2" d="M22.1,39.1h-4.2c-1.8,0-3.2-1.4-3.2-3.2v0c0-1.8,1.4-3.2,3.2-3.2h9.1"/>
		<path id="XMLID_76_" class="st2" d="M34.9,32.8h14.2c1.8,0,3.2,1.4,3.2,3.2v0c0,1.8-1.4,3.2-3.2,3.2h-21"/>
		<path id="XMLID_81_" class="st2" d="M24.7,43.1h23.8l0,0c0,4.1-3.3,7.3-7.3,7.3H26.2c-2.4,0-4.6-1.2-5.9-3"/>
		<line id="XMLID_83_" class="st2" x1="11.8" y1="52.1" x2="51.9" y2="11.9"/>
		<line id="XMLID_86_" class="st2" x1="26" y1="18.9" x2="27.8" y2="18.9"/>
		<line id="XMLID_82_" class="st2" x1="30.5" y1="18.9" x2="32.3" y2="18.9"/>
		<line id="XMLID_87_" class="st2" x1="34.9" y1="18.9" x2="36.7" y2="18.9"/>
		<line id="XMLID_89_" class="st2" x1="28.3" y1="22.2" x2="30.1" y2="22.2"/>
		<line id="XMLID_88_" class="st2" x1="32.7" y1="22.2" x2="34.5" y2="22.2"/>
	</g>
	<g id="XMLID_98_" class="st0">
		<g id="XMLID_96_" class="st3">
			<path id="XMLID_100_" class="st4" d="M31.9,16.2l-0.7,1.9c0,0.1,0,0.2,0.1,0.2l4.4,2l3-1.1l1,1.1c0,0-1.2,7.9-0.7,15.6"/>
			<path id="XMLID_101_" class="st4" d="M26.5,38c0-3,2.9-5.5,6.4-5.5s6.4,2.5,6.4,5.5"/>
			<path id="XMLID_99_" class="st4" d="M12.6,33.7c1.5-1.3,3.5-2,5.8-2s4.3,0.8,5.8,2c1.5,1.3,2.4,3,2.4,4.9"/>
			<path id="XMLID_102_" class="st4" d="M17.4,47c2,1.7,4.8,2.8,7.8,2.8s5.8-1.1,7.8-2.8"/>
			<path id="XMLID_90_" class="st4" d="M27.1,45.3c2.4,1.4,5.4,2.7,10.2,1.9c3.9-0.7,3.7-3.6,12.1-4.4l1.3-2.4
				c1.7-3.6-0.4-12.2-1-14.1c-0.1-0.3-0.2-0.5-0.3-0.8l-4.9-10.7c-0.2-0.4-0.5-0.6-0.8-0.8l-9.6-4.2c-0.5-0.2-1.2-0.1-1.5,0.4
				l-2.8,4.1c-0.1,0.2-0.1,0.4,0.1,0.5l4.8,2.2c0.1,0,0.2,0,0.2-0.1l1-2.3"/>
			<polyline id="XMLID_93_" class="st4" points="20.5,44.6 15.4,50.1 15.4,54.4 			"/>
		</g>
		<line id="XMLID_107_" class="st2" x1="32.2" y1="27.4" x2="32.2" y2="30.4"/>
		<line id="XMLID_106_" class="st2" x1="27.6" y1="28.4" x2="28.9" y2="31.1"/>
		<line id="XMLID_109_" class="st2" x1="36.7" y1="28.4" x2="35.4" y2="31.1"/>
	</g>
	<g id="XMLID_115_" class="st0">
		<path id="XMLID_118_" class="st2" d="M42.5,53v-0.7c0,0,5.7-8.5,3.7-15.6c-0.9-3.3-5.5-8.1-5.5-12.5c0-5.4,3.6-8.4,5.2-12.4V11"/>
		<path id="XMLID_117_" class="st2" d="M22.4,53l0-0.7c-1.6-3.6-5.2-8.3-5.2-13.7c0-4.4,4.6-9.2,5.5-12.5c1.9-6.5-2.8-12.3-3.6-14.2
			l0-0.8"/>
		<path id="XMLID_127_" class="st2" d="M21.3,32.5c7,2.7,14.4,2.7,21.2,0.1c0.7-0.3,1.5,0.1,1.8,0.8l0.4,0.9
			c0.3,0.7-0.1,1.3-0.8,1.5c-5.1,1.2-9.3,5.2-11.1,7.1c-0.5,0.6-1.3,0.6-1.9,0c-1.6-1.6-5.4-4.7-11.4-6.8c-0.7-0.3-1-1-0.7-1.7
			l0.5-1.2C19.7,32.5,20.6,32.2,21.3,32.5z"/>
		<line id="XMLID_126_" class="st2" x1="31.8" y1="43.3" x2="31.8" y2="51.8"/>
		<path id="XMLID_125_" class="st2" d="M32.4,13.7c0,3.2-2.6,5.7-5.7,5.7c-2.1,0-3.9-1.1-4.9-2.8"/>
		<path id="XMLID_124_" class="st2" d="M42.8,17.1c-1,1.4-2.7,2.3-4.6,2.3c-3.2,0-5.7-2.6-5.7-5.7"/>
		<line id="XMLID_120_" class="st2" x1="31.1" y1="27.8" x2="33.1" y2="27.8"/>
		<polyline id="XMLID_122_" class="st2" points="14.6,27.8 17.8,24.6 14.6,21.3 		"/>
		<polyline id="XMLID_129_" class="st2" points="49.4,27.8 46.2,24.6 49.4,21.3 		"/>
	</g>
	<g id="XMLID_146_" class="st0">
		<g id="XMLID_135_" class="st3">
			<path id="XMLID_140_" class="st4" d="M20.1,32c0-12,10.6-21.8,12.6-21.8c2.4,0,12.6,9.8,12.6,21.8c0,12-10.3,21.8-12.6,21.8
				C30.8,53.8,20.1,44,20.1,32z"/>
			<line id="XMLID_139_" class="st4" x1="40.8" y1="46.1" x2="24.8" y2="46.1"/>
			<line id="XMLID_121_" class="st4" x1="43.3" y1="41.5" x2="22.1" y2="41.5"/>
			<line id="XMLID_138_" class="st4" x1="40.4" y1="17.9" x2="24.7" y2="17.9"/>
			<line id="XMLID_130_" class="st4" x1="43.3" y1="22.5" x2="22.3" y2="22.5"/>
			<line id="XMLID_137_" class="st4" x1="32.9" y1="38.8" x2="32.9" y2="25.3"/>
			<line id="XMLID_134_" class="st4" x1="36.2" y1="28.6" x2="29.8" y2="28.6"/>
			<line id="XMLID_133_" class="st4" x1="36.2" y1="32.1" x2="29.8" y2="32.1"/>
			<line id="XMLID_132_" class="st4" x1="36.2" y1="35.6" x2="29.8" y2="35.6"/>
		</g>
		<line id="XMLID_142_" class="st2" x1="9.5" y1="32.2" x2="11.5" y2="32.2"/>
		<line id="XMLID_136_" class="st2" x1="13.5" y1="32.2" x2="15.5" y2="32.2"/>
		<line id="XMLID_145_" class="st2" x1="48.5" y1="32.2" x2="50.5" y2="32.2"/>
		<line id="XMLID_143_" class="st2" x1="52.5" y1="32.2" x2="54.5" y2="32.2"/>
	</g>
	<g id="XMLID_161_" class="st0">
		<path id="XMLID_148_" class="st2" d="M20.3,20.9h-0.6l-4.9,2c-0.1,0-0.2,0.1-0.2,0.2v14.8l2,14.8c0,0.1,0.1,0.2,0.2,0.2h30.4
			c0.1,0,0.2-0.1,0.2-0.2l2-14.8V23c0-0.1-0.1-0.2-0.2-0.2l-5.4-2H43"/>
		<circle id="XMLID_144_" class="st2" cx="31.8" cy="25.8" r="10.4"/>
		<path id="XMLID_165_" class="st5" d="M21.6,15.5c1.3-1.3,2.9-2.4,4.6-3.1c1.7-0.7,3.6-1.1,5.7-1.1s3.9,0.4,5.7,1.1
			c1.7,0.7,3.3,1.8,4.6,3.1"/>
		<circle id="XMLID_158_" class="st2" cx="31.8" cy="25.8" r="1.8"/>
		<line id="XMLID_150_" class="st2" x1="31.2" y1="18.2" x2="32.8" y2="18.2"/>
		<line id="XMLID_141_" class="st2" x1="36.7" y1="19.9" x2="37.9" y2="21.1"/>
		<line id="XMLID_151_" class="st2" x1="39.4" y1="25.1" x2="39.4" y2="26.8"/>
		<line id="XMLID_153_" class="st2" x1="37.7" y1="30.7" x2="36.5" y2="31.9"/>
		<line id="XMLID_154_" class="st2" x1="32.5" y1="33.4" x2="30.8" y2="33.4"/>
		<line id="XMLID_155_" class="st2" x1="26.9" y1="31.6" x2="25.7" y2="30.4"/>
		<line id="XMLID_156_" class="st2" x1="24.2" y1="26.4" x2="24.2" y2="24.8"/>
		<line id="XMLID_157_" class="st2" x1="26" y1="20.9" x2="27.1" y2="19.7"/>
		<line id="XMLID_163_" class="st2" x1="31.9" y1="19.8" x2="31.9" y2="24"/>
	</g>
	<g id="XMLID_17_" class="st0">
		<polyline id="XMLID_128_" class="st2" points="24.6,37.8 27.3,37.8 30.2,42.8 34.3,34.1 36.7,37.8 39.1,37.8 		"/>
		<path id="XMLID_78_" class="st2" d="M45.3,11.8c0-1.2-1-2.3-2.3-2.3H20.9c-1.2,0-2.3,1-2.3,2.3v40.3c0,1.2,1,2.3,2.3,2.3h22.1
			c1.2,0,2.3-1,2.3-2.3V11.8z"/>
		<line id="XMLID_91_" class="st2" x1="18.7" y1="16.4" x2="45.3" y2="16.4"/>
		<line id="XMLID_74_" class="st2" x1="27.7" y1="13.1" x2="36.3" y2="13.1"/>
		<line id="XMLID_48_" class="st2" x1="18.7" y1="47.7" x2="45.3" y2="47.7"/>
		<g id="XMLID_346_" class="st3">
			<path id="XMLID_357_" class="st4" d="M27,32v-2.6c0-0.2,0.2-0.5,0.4-0.5l3.2-1.1V26"/>
			<path id="XMLID_355_" class="st4" d="M37,32v-2.6c0-0.2-0.2-0.5-0.4-0.5l-3.2-1.1V26"/>
			<path id="XMLID_354_" class="st4" d="M34.4,21.9c0-1.3-1.1-2.4-2.4-2.4c-1.3,0-2.4,1.1-2.4,2.4l0.2,2.9c0,0.4,0.3,0.7,0.6,0.9
				l1.2,0.8h0.8l1.2-0.8c0.3-0.2,0.6-0.5,0.6-0.9L34.4,21.9z"/>
		</g>
		<line id="XMLID_188_" class="st2" x1="41" y1="37.9" x2="42.9" y2="37.9"/>
		<line id="XMLID_114_" class="st2" x1="21" y1="37.9" x2="22.9" y2="37.9"/>
	</g>
	<g id="XMLID_198_" class="st0">
		<path id="XMLID_95_" class="st2" d="M40.5,54.4H28.9c-0.1,0-0.1,0-0.1-0.1V31c0-0.1,0.1-0.1,0.1-0.1h2.5l0-2.2h14.1l0,2.2h2.3
			c0.1,0,0.1,0.1,0.1,0.1v16"/>
		<circle id="XMLID_110_" class="st2" cx="38.3" cy="41.2" r="6.8"/>
		<path id="XMLID_186_" class="st2" d="M27.7,28.3l-0.6,0c-0.9-0.3-1.8-0.5-2.8-0.5c-4.7,0-8.4,3.8-8.4,8.4c0,4.7,3.8,8.4,8.4,8.4
			c0.8,0,1.5-0.1,2.2-0.3l0.5,0"/>
		<path id="XMLID_111_" class="st2" d="M47.7,28.7H29.6c-0.1,0-0.2-0.1-0.2-0.2v-5c0-0.1,0.1-0.2,0.2-0.2h18.2
			c0.1,0,0.2,0.1,0.2,0.2v5C47.9,28.6,47.8,28.7,47.7,28.7z"/>
		<line id="XMLID_149_" class="st2" x1="31.6" y1="25" x2="31.6" y2="27"/>
		<line id="XMLID_112_" class="st2" x1="34.3" y1="25" x2="34.3" y2="27"/>
		<line id="XMLID_181_" class="st2" x1="37.1" y1="25" x2="37.1" y2="27"/>
		<line id="XMLID_182_" class="st2" x1="39.9" y1="25" x2="39.9" y2="27"/>
		<line id="XMLID_183_" class="st2" x1="42.6" y1="25" x2="42.6" y2="27"/>
		<line id="XMLID_184_" class="st2" x1="45.4" y1="25" x2="45.4" y2="27"/>
		<path id="XMLID_185_" class="st2" d="M51,54.4h-5.9c-1.4,0-2.5-1.1-2.5-2.5l0,0c0-1.4,1.1-2.5,2.5-2.5H51c1.4,0,2.5,1.1,2.5,2.5
			l0,0C53.5,53.3,52.4,54.4,51,54.4z"/>
		<line id="XMLID_189_" class="st2" x1="47.9" y1="49.4" x2="47.9" y2="54.4"/>
		<line id="XMLID_192_" class="st2" x1="33.4" y1="41.6" x2="35.3" y2="41.6"/>
		<line id="XMLID_190_" class="st2" x1="37.4" y1="41.6" x2="39.3" y2="41.6"/>
		<line id="XMLID_193_" class="st2" x1="41.4" y1="41.6" x2="43.3" y2="41.6"/>
		<line id="XMLID_200_" class="st2" x1="19.2" y1="36.7" x2="21.1" y2="36.7"/>
		<line id="XMLID_199_" class="st2" x1="23.2" y1="36.7" x2="25.1" y2="36.7"/>
		<g id="XMLID_177_" class="st3">
			<path id="XMLID_169_" class="st4" d="M26.4,54.4H10.5V26.7c0-5.3,4.3-9.5,9.5-9.5h11.1c2.9,0,5.4,1.3,7.2,3.3"/>
			<path id="XMLID_197_" class="st4" d="M21.9,14.3h-4.7c-0.1,0-0.3-0.1-0.3-0.3V9.8c0-0.1,0.1-0.3,0.3-0.3H34
				c0.1,0,0.3,0.1,0.3,0.3v4.2c0,0.1-0.1,0.3-0.3,0.3h-7.9"/>
			<line id="XMLID_196_" class="st4" x1="19.9" y1="14.3" x2="19.9" y2="16.9"/>
			<line id="XMLID_195_" class="st4" x1="30.9" y1="14.3" x2="30.9" y2="16.9"/>
		</g>
	</g>
	<g id="XMLID_218_" class="st0">
		<g id="XMLID_206_" class="st3">
			<path id="XMLID_202_" class="st4" d="M36.4,21.8l9.1,3c0.1,0,0.2,0,0.3-0.1l4.5-5.3l0.6-0.3l1.3-1.2c0.4-0.3,0.4-0.9,0.1-1.3
				L51.8,16c-0.3-0.4-1-0.5-1.4-0.1l-1.1,1l-1,1.2L45,21.8l-6.7-3.8l-0.9-0.3c-1.2-0.5-2.6-0.5-3.8,0L23,22.1
				c-0.1,0-0.1,0.1-0.1,0.2v9.1l-0.4,1v0.5c0,0.4,0.4,0.8,0.8,0.8h1.7c0.4,0,0.8-0.4,0.8-0.8v-1.7l-0.5-0.8l0.1-6.4l5.3-1.2"/>
			<path id="XMLID_203_" class="st4" d="M39.5,22.5l-4,10.3l8.6,5.2c0.6,0.4,0.8,1.1,0.5,1.7l-5,9.9l1.3,2.9l2.1,0.9l-0.1,1.1h-2.6
				l-4.6-3.2c-0.1-0.1-0.2-0.2-0.1-0.4l5-10c0,0,0-0.1-0.1-0.1l-10.8-3.7"/>
			<path id="XMLID_211_" class="st4" d="M32.5,38.2L29.2,44l-9,2.7L18.4,50v1.4c0,0.1-0.1,0.2-0.2,0.2H17c-0.1,0-0.2-0.1-0.2-0.2v-7
				c0-0.1,0.1-0.2,0.2-0.2h2.2l7.3-2.6l1.3-6l2.5-6.4l0.2-8.4"/>
			<circle id="XMLID_201_" class="st4" cx="37.5" cy="12.5" r="3.2"/>
		</g>
		<line id="XMLID_210_" class="st2" x1="45.6" y1="54.7" x2="54.6" y2="54.7"/>
		<line id="XMLID_208_" class="st2" x1="36" y1="54.7" x2="22.4" y2="54.7"/>
		<line id="XMLID_215_" class="st2" x1="32.1" y1="11.7" x2="9.4" y2="11.7"/>
		<line id="XMLID_216_" class="st2" x1="27.1" y1="17.1" x2="9.4" y2="17.1"/>
		<line id="XMLID_217_" class="st2" x1="20.3" y1="22.5" x2="9.4" y2="22.5"/>
		<line id="XMLID_212_" class="st2" x1="17.9" y1="54.7" x2="20.3" y2="54.7"/>
		<line id="XMLID_213_" class="st2" x1="13.7" y1="54.7" x2="16.2" y2="54.7"/>
		<line id="XMLID_214_" class="st2" x1="9.5" y1="54.7" x2="12" y2="54.7"/>
	</g>
	<g id="XMLID_224_" class="st0">
		<g id="XMLID_222_" class="st3">
			<path id="XMLID_225_" class="st4" d="M45.6,36.1v-0.5c-1.3-4.7-6-11.2-13.2-11.7c-0.6,0-2.9,3.6-3.5,3.6c-0.6,0-2.9-3.6-3.5-3.6
				c-8.6,0.6-13.6,8.5-13.6,14.6c0,6.1,5,14.3,13.6,14.9c0.7,0.1,2.9-1.5,3.6-1.5c0.6,0,2.8,1.6,3.4,1.5c3.6-0.3,6.6-1.9,8.9-4.1
				l0-0.8"/>
			<path id="XMLID_223_" class="st4" d="M29.6,22.4c0,0-5.1-0.5-7.1-3.8c-2-3.3-0.2-8.1-0.2-8.1s5.1,0.5,7.1,3.8
				C31.4,17.6,29.6,22.4,29.6,22.4z"/>
		</g>
		<path id="XMLID_220_" class="st2" d="M47.8,46.9H23.4c-0.1,0-0.1-0.1-0.1-0.1v-8.9c0-0.1,0.1-0.1,0.1-0.1h24.5c0,0,4.3,0,4.3-4.4
			v9.2C52.2,44.9,50.3,46.9,47.8,46.9z"/>
		<path id="XMLID_226_" class="st2" d="M42.7,29.5h5.5c2.2,0,4.1,1.8,4.1,4.1"/>
		<line id="XMLID_227_" class="st2" x1="27.7" y1="38.2" x2="27.7" y2="42"/>
		<line id="XMLID_221_" class="st2" x1="32.7" y1="38.2" x2="32.7" y2="42"/>
		<line id="XMLID_228_" class="st2" x1="37.7" y1="38.2" x2="37.7" y2="42"/>
		<line id="XMLID_229_" class="st2" x1="42.7" y1="38.2" x2="42.7" y2="42"/>
		<line id="XMLID_230_" class="st2" x1="47.7" y1="38.2" x2="47.7" y2="42"/>
	</g>
	<g id="XMLID_359_" class="st0">
		<circle id="XMLID_336_" class="st2" cx="31.8" cy="20.9" r="11.5"/>
		<path id="XMLID_344_" class="st2" d="M31.8,32.4c2.7,0,5.2-0.9,7.2-2.5c-1.1-2.5-3.9-4.3-7.2-4.3c-3.3,0-6,1.8-7.2,4.3
			C26.6,31.5,29,32.4,31.8,32.4z"/>
		<path id="XMLID_340_" class="st2" d="M31.8,9.3c-2.8,0-5.3,1-7.3,2.6c1,2.7,3.9,4.6,7.3,4.6c3.4,0,6.2-1.9,7.3-4.6
			C37,10.3,34.5,9.3,31.8,9.3z"/>
		<line id="XMLID_337_" class="st2" x1="31.7" y1="9.7" x2="31.7" y2="32.1"/>
		<line id="XMLID_338_" class="st2" x1="42.9" y1="20.9" x2="20.6" y2="20.9"/>
		<line id="XMLID_347_" class="st2" x1="24.2" y1="53.6" x2="42.5" y2="43.3"/>
		<line id="XMLID_349_" class="st2" x1="25.4" y1="45.7" x2="31.7" y2="42.1"/>
		<line id="XMLID_352_" class="st2" x1="38.2" y1="45.7" x2="31.9" y2="42.1"/>
		<line id="XMLID_348_" class="st2" x1="39.3" y1="53.6" x2="21.7" y2="43.8"/>
		<line id="XMLID_353_" class="st2" x1="31.7" y1="37.4" x2="31.8" y2="42.2"/>
		<path id="XMLID_234_" class="st2" d="M48.9,37.4h-34c-0.1,0-0.2-0.1-0.2-0.2v-2.1c0-0.1,0.1-0.2,0.2-0.2c2.6,0,31.4,0,34,0
			c0.1,0,0.2,0.1,0.2,0.2v2.1C49.1,37.3,49,37.4,48.9,37.4z"/>
		<path id="XMLID_233_" class="st2" d="M17.9,37.6c1.9,2.4,6.6,9.1,6.4,17"/>
		<path id="XMLID_231_" class="st2" d="M46,37.7c-2,2.5-6.5,9.1-6.3,16.9"/>
		<line id="XMLID_237_" class="st2" x1="16" y1="20.9" x2="18" y2="20.9"/>
		<line id="XMLID_236_" class="st2" x1="12" y1="20.9" x2="14" y2="20.9"/>
		<line id="XMLID_238_" class="st2" x1="8" y1="20.9" x2="10" y2="20.9"/>
		<line id="XMLID_241_" class="st2" x1="54" y1="20.9" x2="56" y2="20.9"/>
		<line id="XMLID_240_" class="st2" x1="50" y1="20.9" x2="52" y2="20.9"/>
		<line id="XMLID_239_" class="st2" x1="46" y1="20.9" x2="48" y2="20.9"/>
	</g>
	<g id="XMLID_265_" class="st0">
		<g id="XMLID_447_" class="st3">
			<line id="XMLID_264_" class="st4" x1="27.2" y1="30.7" x2="19.8" y2="23.3"/>
			<line id="XMLID_263_" class="st4" x1="40.8" y1="44.4" x2="33.9" y2="37.4"/>
			<path id="XMLID_450_" class="st4" d="M27.4,15.4l-2.8-2.8c-0.1-0.1-0.2-0.1-0.3,0L12,24.9c-0.1,0.1-0.1,0.2,0,0.3l2.8,2.8
				c0.1,0.1,0.2,0.1,0.3,0l12.3-12.3C27.5,15.6,27.5,15.5,27.4,15.4z"/>
			<path id="XMLID_448_" class="st4" d="M17.4,12.8l-1.6-1.6c-0.1-0.1-0.2,0-0.3,0l-4.3,4.3c-0.1,0.1-0.1,0.2,0,0.3l1.6,1.6"/>
			<path id="XMLID_242_" class="st4" d="M22.4,13.6l-1.8-1.8c-0.1-0.1-0.4-0.1-0.6,0.1l-8.2,8.2c-0.2,0.2-0.2,0.4-0.1,0.6l1.8,1.8"
				/>
			<path id="XMLID_250_" class="st4" d="M48.6,36.6l2.8,2.8c0.1,0.1,0.1,0.2,0,0.3L39.1,52c-0.1,0.1-0.2,0.1-0.3,0L36,49.2
				c-0.1-0.1-0.1-0.2,0-0.3l12.3-12.3C48.4,36.5,48.5,36.5,48.6,36.6z"/>
			<path id="XMLID_249_" class="st4" d="M51.2,46.6l1.6,1.6c0.1,0.1,0,0.2,0,0.3l-4.3,4.3c-0.1,0.1-0.2,0.1-0.3,0l-1.6-1.6"/>
			<path id="XMLID_247_" class="st4" d="M50.4,41.6l1.8,1.8c0.1,0.1,0.1,0.4-0.1,0.6l-8.2,8.2c-0.2,0.2-0.4,0.2-0.6,0.1l-1.8-1.8"/>
			<line id="XMLID_262_" class="st4" x1="30.1" y1="27" x2="23.1" y2="20"/>
			<line id="XMLID_245_" class="st4" x1="44.2" y1="41" x2="37" y2="33.9"/>
		</g>
		<g id="XMLID_252_" class="st3">
			<line id="XMLID_261_" class="st4" x1="23.2" y1="44.4" x2="44.2" y2="23.3"/>
			<path id="XMLID_260_" class="st4" d="M36.6,15.4l2.8-2.8c0.1-0.1,0.2-0.1,0.3,0L52,24.9c0.1,0.1,0.1,0.2,0,0.3L49.2,28
				c-0.1,0.1-0.2,0.1-0.3,0L36.6,15.7C36.5,15.6,36.5,15.5,36.6,15.4z"/>
			<path id="XMLID_259_" class="st4" d="M46.6,12.8l1.6-1.6c0.1-0.1,0.2,0,0.3,0l4.3,4.3c0.1,0.1,0.1,0.2,0,0.3l-1.6,1.6"/>
			<path id="XMLID_258_" class="st4" d="M41.6,13.6l1.8-1.8c0.1-0.1,0.4-0.1,0.6,0.1l8.2,8.2c0.2,0.2,0.2,0.4,0.1,0.6l-1.8,1.8"/>
			<path id="XMLID_257_" class="st4" d="M15.4,36.6l-2.8,2.8c-0.1,0.1-0.1,0.2,0,0.3L24.9,52c0.1,0.1,0.2,0.1,0.3,0l2.8-2.8
				c0.1-0.1,0.1-0.2,0-0.3L15.7,36.6C15.6,36.5,15.5,36.5,15.4,36.6z"/>
			<path id="XMLID_256_" class="st4" d="M12.8,46.6l-1.6,1.6c-0.1,0.1,0,0.2,0,0.3l4.3,4.3c0.1,0.1,0.2,0.1,0.3,0l1.6-1.6"/>
			<path id="XMLID_255_" class="st4" d="M13.6,41.6l-1.8,1.8c-0.1,0.1-0.1,0.4,0.1,0.6l8.2,8.2c0.2,0.2,0.4,0.2,0.6,0.1l1.8-1.8"/>
			<line id="XMLID_253_" class="st4" x1="19.8" y1="41" x2="40.9" y2="20"/>
		</g>
	</g>
	<g id="XMLID_283_" class="st0">
		<g id="XMLID_251_" class="st3">
			<path id="XMLID_272_" class="st4" d="M40.4,25.1c0,4.6-3.7,8.3-8.3,8.3h0c-4.6,0-8.3-3.7-8.3-8.3V14.8l-2-0.7c0,0-0.1,0-0.1-0.1
				v-3.4c0-0.1,0.1-0.1,0.1-0.1h20.4c0.1,0,0.1,0.1,0.1,0.1V14c0,0,0,0.1-0.1,0.1l-2,0.7V25.1z"/>
			<path id="XMLID_270_" class="st4" d="M40.5,19.2c0.2-0.5,0.5-0.9,0.9-1.3c0.4-0.4,0.8-0.7,1.3-0.9c0.5-0.2,1-0.3,1.6-0.3
				c0.6,0,1.1,0.1,1.6,0.3c0.5,0.2,0.9,0.5,1.3,0.9c0.4,0.4,0.7,0.8,0.9,1.3c0.2,0.5,0.3,1,0.3,1.6c0,0.6-0.1,1.1-0.3,1.6
				c-0.2,0.5-0.5,0.9-0.9,1.3c-0.4,0.4-0.8,0.7-1.3,0.9l-2.9,1.3c-0.3,0.1-0.6,0.3-0.8,0.5c-0.2,0.2-0.4,0.5-0.5,0.8
				c-0.1,0.3-0.2,0.6-0.2,0.9s0.1,0.7,0.2,0.9c0.1,0.3,0.3,0.6,0.5,0.8c0.2,0.2,0.5,0.4,0.8,0.5c0.3,0.1,0.6,0.2,0.9,0.2
				c0.3,0,0.7-0.1,0.9-0.2c0.3-0.1,0.6-0.3,0.8-0.5c0.2-0.2,0.4-0.5,0.5-0.8c0.1-0.3,0.2-0.6,0.2-0.9"/>
			<path id="XMLID_285_" class="st4" d="M23.8,19.2c-0.2-0.5-0.5-0.9-0.9-1.3c-0.4-0.4-0.8-0.7-1.3-0.9c-0.5-0.2-1-0.3-1.6-0.3
				s-1.1,0.1-1.6,0.3c-0.5,0.2-0.9,0.5-1.3,0.9c-0.4,0.4-0.7,0.8-0.9,1.3c-0.2,0.5-0.3,1-0.3,1.6c0,0.6,0.1,1.1,0.3,1.6
				c0.2,0.5,0.5,0.9,0.9,1.3c0.4,0.4,0.8,0.7,1.3,0.9l2.9,1.3c0.3,0.1,0.6,0.3,0.8,0.5c0.2,0.2,0.4,0.5,0.5,0.8
				c0.1,0.3,0.2,0.6,0.2,0.9s-0.1,0.7-0.2,0.9c-0.1,0.3-0.3,0.6-0.5,0.8c-0.2,0.2-0.5,0.4-0.8,0.5c-0.3,0.1-0.6,0.2-0.9,0.2
				c-0.3,0-0.7-0.1-0.9-0.2c-0.3-0.1-0.6-0.3-0.8-0.5c-0.2-0.2-0.4-0.5-0.5-0.8c-0.1-0.3-0.2-0.6-0.2-0.9"/>
			<path id="XMLID_269_" class="st4" d="M23.7,44.6v-3.2c0-0.1,0.1-0.2,0.2-0.2h16.5c0.1,0,0.2,0.1,0.2,0.2v3.2"/>
			<path id="XMLID_268_" class="st4" d="M29,41.2V41c0-1.2,0.7-2.3,1.8-2.8l0,0v-4.9"/>
			<path id="XMLID_267_" class="st4" d="M33.3,33.3v4.9l0,0c1.1,0.5,1.8,1.6,1.8,2.8v0.3"/>
			<line id="XMLID_273_" class="st4" x1="23" y1="14.7" x2="32.1" y2="14.7"/>
		</g>
		<path id="XMLID_274_" class="st2" d="M9.9,53.5h6.8v-8.2c0-0.1,0.1-0.2,0.2-0.2h30c0.1,0,0.2,0.1,0.2,0.2v8.2h7"/>
		<line id="XMLID_275_" class="st2" x1="23.1" y1="51.2" x2="25" y2="51.2"/>
		<line id="XMLID_254_" class="st2" x1="27.1" y1="51.2" x2="29" y2="51.2"/>
		<line id="XMLID_278_" class="st2" x1="31.1" y1="51.2" x2="33" y2="51.2"/>
		<line id="XMLID_280_" class="st2" x1="35.1" y1="51.2" x2="37" y2="51.2"/>
		<line id="XMLID_282_" class="st2" x1="39.1" y1="51.2" x2="41" y2="51.2"/>
	</g>
	<g id="XMLID_401_" class="st0">
		<g id="XMLID_394_" class="st3">
			<rect id="XMLID_395_" x="25.7" y="23.4" class="st4" width="12.1" height="3.3"/>
		</g>
		<g id="XMLID_392_" class="st3">
			<rect id="XMLID_393_" x="25.7" y="30.2" class="st4" width="12.1" height="3.3"/>
		</g>
		<path id="XMLID_370_" class="st2" d="M15.5,37.9c0,3-2.5,5.5-5.5,5.5"/>
		<path id="XMLID_361_" class="st2" d="M26.5,37.9c0,3-2.5,5.5-5.5,5.5c-3,0-5.5-2.5-5.5-5.5"/>
		<path id="XMLID_366_" class="st2" d="M37.5,37.9c0,3-2.5,5.5-5.5,5.5c-3,0-5.5-2.5-5.5-5.5"/>
		<path id="XMLID_367_" class="st2" d="M48.5,37.9c0,3-2.5,5.5-5.5,5.5c-3,0-5.5-2.5-5.5-5.5"/>
		<path id="XMLID_365_" class="st2" d="M54,43.4c-3,0-5.5-2.5-5.5-5.5"/>
		<path id="XMLID_290_" class="st2" d="M20.9,48c0,3-2.5,5.5-5.5,5.5"/>
		<path id="XMLID_289_" class="st2" d="M31.9,48c0,3-2.5,5.5-5.5,5.5c-3,0-5.5-2.5-5.5-5.5"/>
		<path id="XMLID_288_" class="st2" d="M42.9,48c0,3-2.5,5.5-5.5,5.5c-3,0-5.5-2.5-5.5-5.5"/>
		<path id="XMLID_279_" class="st2" d="M48.5,53.5c-3,0-5.5-2.5-5.5-5.5"/>
		<g id="XMLID_387_" class="st3">
			<path id="XMLID_284_" class="st4" d="M41.2,36.1v-15c0-4.1,3.3-7.4,7.4-7.4c0.9,0,1.6-0.7,1.6-1.6c0-0.9-0.7-1.6-1.6-1.6
				c-5.9,0-10.6,4.8-10.6,10.6v15"/>
		</g>
		<g id="XMLID_276_" class="st3">
			<path id="XMLID_286_" class="st4" d="M24.9,36.1v-15c0-4.1,3.3-7.4,7.4-7.4c0.9,0,1.6-0.7,1.6-1.6c0-0.9-0.7-1.6-1.6-1.6
				c-5.9,0-10.6,4.8-10.6,10.6v15"/>
		</g>
	</g>
	<g id="XMLID_292_" class="st0">
		<path id="XMLID_311_" class="st2" d="M31.5,14c0-2.3-1.8-4.1-4.1-4.1s-4.1,1.8-4.1,4.1h-1.8c-1.2,0-2.2,1-2.2,2.2v4.1
			c0,0.1,0.1,0.1,0.1,0.1h15.8c0.1,0,0.1-0.1,0.1-0.1v-4.1c0-1.2-1-2.2-2.2-2.2H31.5z"/>
		<path id="XMLID_303_" class="st2" d="M35.4,54.1H11.1c0,0-0.1,0-0.1-0.1V16.6c0-0.1,0.1-0.2,0.2-0.2h6"/>
		<path id="XMLID_302_" class="st2" d="M37.7,16.4H43c0.1,0,0.2,0.1,0.2,0.2v15.8"/>
		<polyline id="XMLID_305_" class="st2" points="40.3,32.4 40.3,19 37.7,19 		"/>
		<polyline id="XMLID_304_" class="st2" points="17.2,19 14.6,19 14.6,50.6 32.9,50.6 		"/>
		<line id="XMLID_293_" class="st2" x1="26.6" y1="13.7" x2="28.4" y2="13.7"/>
		<polyline id="XMLID_296_" class="st2" points="18.2,24.8 19.8,26.5 22.3,23.9 		"/>
		<polyline id="XMLID_291_" class="st2" points="18.2,31.7 19.8,33.4 22.3,30.9 		"/>
		<polyline id="XMLID_298_" class="st2" points="18.2,38.7 19.8,40.4 22.3,37.8 		"/>
		<polyline id="XMLID_300_" class="st2" points="18.2,45.7 19.8,47.3 22.3,44.8 		"/>
		<circle id="XMLID_301_" class="st2" cx="42.8" cy="43.9" r="10.2"/>
		<path id="XMLID_307_" class="st2" d="M42.8,36.1c4.3,0,7.8,3.5,7.8,7.8"/>
		<polyline id="XMLID_310_" class="st2" points="48.3,43.9 42.8,43.9 42.8,37.8 		"/>
		<line id="XMLID_312_" class="st2" x1="26.6" y1="25.7" x2="37.3" y2="25.7"/>
		<line id="XMLID_308_" class="st2" x1="26.6" y1="32.8" x2="37.3" y2="32.8"/>
		<line id="XMLID_313_" class="st2" x1="26.6" y1="39.9" x2="31.1" y2="39.9"/>
		<line id="XMLID_314_" class="st2" x1="26.6" y1="47" x2="30.9" y2="47"/>
	</g>
	<g id="XMLID_322_">
		<circle id="XMLID_306_" class="st4" cx="31.9" cy="35.9" r="16.9"/>
		<circle id="XMLID_309_" class="st4" cx="31.9" cy="35.9" r="2.1"/>
		<path id="XMLID_316_" class="st4" d="M45.1,35.9c0,7.3-5.9,13.2-13.2,13.2c-7.3,0-13.2-5.9-13.2-13.2c0-7.3,5.9-13.2,13.2-13.2"/>
		<line id="XMLID_318_" class="st4" x1="32.9" y1="35" x2="42" y2="25.9"/>
		<path id="XMLID_321_" class="st4" d="M29.9,15.6h-3.1c-0.1,0-0.2-0.1-0.2-0.2v-4.1c0-0.1,0.1-0.2,0.2-0.2h10.7
			c0.1,0,0.2,0.1,0.2,0.2v4.1c0,0.1-0.1,0.2-0.2,0.2h-5.3"/>
		<line id="XMLID_320_" class="st4" x1="30.6" y1="17" x2="30.6" y2="18.6"/>
		<line id="XMLID_319_" class="st4" x1="33.6" y1="16" x2="33.6" y2="19.1"/>
		<path id="XMLID_332_" class="st4" d="M44.4,20.9l-1.1-1.1c0,0,0-0.1,0-0.1l1.7-1.7c0,0,0.1,0,0.1,0l3.9,3.9c0,0,0,0.1,0,0.1
			l-1.7,1.7c0,0-0.1,0-0.1,0L45.6,22"/>
		<line id="XMLID_324_" class="st4" x1="46.8" y1="21.8" x2="44.5" y2="24.2"/>
		<line id="XMLID_317_" class="st4" x1="34.6" y1="23" x2="36.4" y2="23.5"/>
		<line id="XMLID_323_" class="st4" x1="37.9" y1="24.2" x2="39.5" y2="25.1"/>
		<line id="XMLID_327_" class="st4" x1="42.9" y1="28.7" x2="43.9" y2="30.3"/>
		<line id="XMLID_329_" class="st4" x1="44.4" y1="31.8" x2="44.9" y2="33.6"/>
	</g>
	<g id="XMLID_369_" class="st0">
		<path id="XMLID_335_" class="st2" d="M47.4,48.9h4.2c0.1,0,0.2,0.1,0.2,0.2v5.6c0,0.1-0.1,0.2-0.2,0.2H12.3"/>
		<line id="XMLID_334_" class="st2" x1="12.3" y1="48.9" x2="27.4" y2="48.9"/>
		<line id="XMLID_333_" class="st2" x1="38" y1="43.5" x2="12.3" y2="45.6"/>
		<path id="XMLID_345_" class="st2" d="M47.4,54.8l-3.1-36.5c0-0.1-0.1-0.2-0.2-0.2h-5.8c-0.1,0-0.2,0.1-0.2,0.2v30.3"/>
		<path id="XMLID_339_" class="st2" d="M38,28H20.7c-0.9,0-1.7-0.8-1.7-1.7l0,0c0-0.9,0.8-1.7,1.7-1.7H38"/>
		<path id="XMLID_341_" class="st2" d="M29.3,22.6v-1L41.5,9.2c0.1-0.1,0.2-0.1,0.3,0l2.3,2.3c0.1,0.1,0.1,0.2,0,0.3l-9.9,10v0.8"/>
		<line id="XMLID_342_" class="st2" x1="41.7" y1="28" x2="41.7" y2="29.9"/>
		<line id="XMLID_325_" class="st2" x1="41.7" y1="32.2" x2="41.7" y2="34.1"/>
		<line id="XMLID_343_" class="st2" x1="41.7" y1="36.3" x2="41.7" y2="38.2"/>
		<line id="XMLID_362_" class="st2" x1="20.2" y1="52" x2="22.1" y2="52"/>
		<line id="XMLID_358_" class="st2" x1="24.3" y1="52" x2="26.3" y2="52"/>
		<line id="XMLID_350_" class="st2" x1="28.5" y1="52" x2="30.4" y2="52"/>
		<line id="XMLID_364_" class="st2" x1="22.9" y1="25.2" x2="22.9" y2="27.3"/>
		<line id="XMLID_328_" class="st2" x1="26" y1="25.2" x2="26" y2="27.3"/>
		<line id="XMLID_368_" class="st2" x1="29.1" y1="25.2" x2="29.1" y2="27.3"/>
	</g>
	<g id="XMLID_116_" class="st0">
		<g id="XMLID_389_" class="st3">
			<path id="XMLID_376_" class="st4" d="M20.5,43.8L20.5,43.8C18.7,42.1,32,26.1,32,26.1c1.7-1.7,4.6-1.7,6.3,0l0,0
				c1.7,1.7,1.7,4.6,0,6.3C38.2,32.4,22.2,45.6,20.5,43.8z"/>
			<line id="XMLID_373_" class="st4" x1="31.4" y1="27.6" x2="32.7" y2="28.9"/>
			<line id="XMLID_372_" class="st4" x1="31" y1="32" x2="32.3" y2="33.3"/>
			<line id="XMLID_360_" class="st4" x1="36.7" y1="30.3" x2="38" y2="31.6"/>
			<line id="XMLID_351_" class="st4" x1="25.5" y1="34.8" x2="26.9" y2="36.1"/>
			<line id="XMLID_175_" class="st4" x1="30" y1="35.6" x2="31.3" y2="36.9"/>
			<line id="XMLID_172_" class="st4" x1="24.2" y1="40.1" x2="25.5" y2="41.4"/>
			<path id="XMLID_383_" class="st4" d="M37.3,26.1c0,0,2.3-4.1-3.2-6.7"/>
			<path id="XMLID_378_" class="st4" d="M38.2,26.7c0,0,4.1-2.3,6.7,3.2"/>
			<path id="XMLID_375_" class="st4" d="M42.4,17.9c0,0,1.2,2.8-3.7,7.7"/>
			<path id="XMLID_374_" class="st4" d="M46.4,21.9c0,0-2.8-1.2-7.7,3.7"/>
			<path id="XMLID_377_" class="st4" d="M46.6,25.3c0,0-4-0.3-7.9,1.2"/>
			<path id="XMLID_380_" class="st4" d="M38.7,17.6c0,0,0.3,4.1-1.2,8"/>
		</g>
		<circle id="XMLID_388_" class="st2" cx="32" cy="32" r="21.4"/>
		<path id="XMLID_390_" class="st2" d="M16.6,32c0-8.5,6.9-15.4,15.4-15.4"/>
	</g>
	<g id="XMLID_397_" class="st0">
		<g id="XMLID_381_" class="st3">
			<path id="XMLID_384_" class="st4" d="M14.3,44.7l-3.1,3.1c-0.1,0.1-0.1,0.2,0,0.2l6.7,6.7c0.1,0.1,0.2,0.1,0.2,0l3.1-3.1"/>
			<polyline id="XMLID_402_" class="st4" points="17.6,48.3 16.2,49.6 12.3,45.7 			"/>
			<path id="XMLID_396_" class="st4" d="M24.7,44.6l5.4-5.4l0.4,0.4c0.7,0.7,1.9,0.7,2.7,0l1-1c0.7-0.7,0.7-1.9,0-2.7l-4.5-4.5
				c-2.2-2.2-5.8-2.2-8.1,0L14,39.1c-0.9,0.9-0.9,2.4,0,3.4l9.4,9.4c0.9,0.9,2.4,0.9,3.4,0l3.4-3.4c1.2-1.2,1.2-3.2,0-4.4L29,42.9"
				/>
		</g>
		<g id="XMLID_398_" class="st3">
			<path id="XMLID_403_" class="st4" d="M49.7,19.3l3.1-3.1c0.1-0.1,0.1-0.2,0-0.2l-6.7-6.7c-0.1-0.1-0.2-0.1-0.2,0l-3.1,3.1"/>
			<polyline id="XMLID_400_" class="st4" points="46.4,15.7 47.8,14.4 51.7,18.3 			"/>
			<path id="XMLID_399_" class="st4" d="M39.3,19.4l-5.4,5.4l-0.4-0.4c-0.7-0.7-1.9-0.7-2.7,0l-1,1c-0.7,0.7-0.7,1.9,0,2.7l4.5,4.5
				c2.2,2.2,5.8,2.2,8.1,0l7.6-7.6c0.9-0.9,0.9-2.4,0-3.4l-9.4-9.4c-0.9-0.9-2.4-0.9-3.4,0l-3.4,3.4c-1.2,1.2-1.2,3.2,0,4.4l1.2,1.2
				"/>
		</g>
		<line id="XMLID_404_" class="st2" x1="45.2" y1="37" x2="49.6" y2="38.6"/>
		<line id="XMLID_408_" class="st2" x1="42.8" y1="41.1" x2="46.4" y2="44.1"/>
		<line id="XMLID_410_" class="st2" x1="39.1" y1="44.2" x2="41.4" y2="48.2"/>
		<line id="XMLID_418_" class="st2" x1="19.1" y1="27.5" x2="14.8" y2="26"/>
		<line id="XMLID_419_" class="st2" x1="21.5" y1="23.4" x2="17.9" y2="20.4"/>
		<line id="XMLID_420_" class="st2" x1="25.2" y1="20.3" x2="22.9" y2="16.2"/>
	</g>
	<g id="XMLID_432_" class="st0">
		<g id="XMLID_423_" class="st3">
			<path id="XMLID_412_" class="st4" d="M32.6,23.6V30l-0.9,0.9l0.9,0.9v6.3L31.7,39l0.9,0.9v6.3L31.7,47l0.9,0.9v5.6
				c0,0.1-0.1,0.2-0.2,0.2H15.8c-0.1,0-0.2-0.1-0.2-0.2v-5.6l0.9-0.9l-0.9-0.9v-6.3l0.9-0.9l-0.9-0.9v-6.3l0.9-0.9L15.6,30v-6.4
				l5.8-4.7v-2.7h5.4v2.7L32.6,23.6z"/>
			<line id="XMLID_414_" class="st4" x1="16.5" y1="30.9" x2="22.8" y2="30.9"/>
			<line id="XMLID_413_" class="st4" x1="16.1" y1="38.9" x2="22.5" y2="38.9"/>
			<line id="XMLID_415_" class="st4" x1="15.8" y1="47" x2="22.1" y2="47"/>
			<line id="XMLID_421_" class="st4" x1="28.9" y1="30.9" x2="31.9" y2="30.9"/>
			<line id="XMLID_417_" class="st4" x1="28.7" y1="38.9" x2="31.7" y2="38.9"/>
			<line id="XMLID_416_" class="st4" x1="28.4" y1="47" x2="31.4" y2="47"/>
			<path id="XMLID_422_" class="st4" d="M27.3,13.7h-6.4v-1c0-1.4,1.1-2.5,2.5-2.5h1.4c1.4,0,2.5,1.1,2.5,2.5V13.7z"/>
		</g>
		<polyline id="XMLID_425_" class="st2" points="34.9,33.7 48.4,33.7 46.5,53.7 34.9,53.7 		"/>
		<line id="XMLID_427_" class="st2" x1="34.9" y1="40.9" x2="47.2" y2="40.9"/>
		<path id="XMLID_428_" class="st2" d="M41.2,23.8c0.5,0.7,2,2.9,2,3.9c0,1.2-0.9,2.1-2.1,2.1c-1.2,0-2.1-0.9-2.1-2.1"/>
		<line id="XMLID_430_" class="st2" x1="39.6" y1="21.4" x2="39.6" y2="23.1"/>
		<line id="XMLID_424_" class="st2" x1="39.6" y1="17.6" x2="39.6" y2="19.3"/>
		<line id="XMLID_431_" class="st2" x1="39.6" y1="13.8" x2="39.6" y2="15.5"/>
	</g>
	<g id="XMLID_440_" class="st0">
		<path id="XMLID_437_" class="st2" d="M55.2,46.8c0.4,0.5,0.4,1.2,0,1.7l0,0c-1.2,1.4-2.9,2.3-4.7,2.3L40.1,51
			c-1.4,0-2.8-0.4-3.9-1.3L8.5,27.2c0,0-0.1-0.1,0-0.1l2-5.3L21.1,13c0.1,0,0.1,0,0.2,0l2.1,2.4l-1,5.9l4.4,3.1l7.7-4
			c0.1-0.1,0.3,0,0.3,0.1l1.3,5.6l9.4,16.2l8.2,2.3L55.2,46.8z M10.5,21.7l29,25.1l9.7,0 M34,29.1l0.8,1.7 M36.3,33.7L35.6,32
			 M38.3,36.6l-0.8-1.7 M39.4,37.9l0.8,1.7"/>
	</g>
	<g id="XMLID_475_" class="st0">
		<line id="XMLID_470_" class="st2" x1="47.5" y1="17.2" x2="32.1" y2="26.2"/>
		<line id="XMLID_467_" class="st2" x1="16.4" y1="28.6" x2="32" y2="19.6"/>
		<path id="XMLID_469_" class="st2" d="M47.8,35.5L17,53.6c-0.5,0.3-0.8,0.1-0.8-0.5l2.1-7c0-0.5,0.4-1.2,0.8-1.5l11.4-6.3"/>
		<path id="XMLID_468_" class="st2" d="M47.6,35.5H16.4c-0.1,0-0.2-0.1-0.2-0.2v-6.5c0-0.1,0.1-0.2,0.2-0.2h31.2
			c0.1,0,0.2,0.1,0.2,0.2v6.5C47.8,35.4,47.7,35.5,47.6,35.5z"/>
		<path id="XMLID_466_" class="st2" d="M47.5,17.2H16.4c-0.1,0-0.2-0.1-0.2-0.2v-6.5c0-0.1,0.1-0.2,0.2-0.2h31.2
			c0.1,0,0.2,0.1,0.2,0.2V17C47.7,17.1,47.7,17.2,47.5,17.2z"/>
		<line id="XMLID_465_" class="st2" x1="19.7" y1="10.5" x2="19.7" y2="13.1"/>
		<line id="XMLID_463_" class="st2" x1="23.7" y1="10.5" x2="23.7" y2="13.1"/>
		<line id="XMLID_461_" class="st2" x1="27.8" y1="10.5" x2="27.8" y2="13.1"/>
		<line id="XMLID_458_" class="st2" x1="31.8" y1="10.5" x2="31.8" y2="13.1"/>
		<line id="XMLID_457_" class="st2" x1="35.9" y1="10.5" x2="35.9" y2="13.1"/>
		<line id="XMLID_456_" class="st2" x1="39.9" y1="10.5" x2="39.9" y2="13.1"/>
		<line id="XMLID_455_" class="st2" x1="43.9" y1="10.5" x2="43.9" y2="13.1"/>
		<line id="XMLID_454_" class="st2" x1="19.7" y1="29.3" x2="19.7" y2="31.9"/>
		<line id="XMLID_453_" class="st2" x1="23.7" y1="29.3" x2="23.7" y2="31.9"/>
		<line id="XMLID_452_" class="st2" x1="27.8" y1="29.3" x2="27.8" y2="31.9"/>
		<line id="XMLID_449_" class="st2" x1="31.8" y1="29.3" x2="31.8" y2="31.9"/>
		<line id="XMLID_446_" class="st2" x1="35.9" y1="29.3" x2="35.9" y2="31.9"/>
		<line id="XMLID_445_" class="st2" x1="39.9" y1="29.3" x2="39.9" y2="31.9"/>
		<line id="XMLID_443_" class="st2" x1="43.9" y1="29.3" x2="43.9" y2="31.9"/>
	</g>
	<g id="XMLID_493_" class="st0">
		<polyline id="XMLID_488_" class="st2" points="17.2,29.1 20.2,29.1 23.4,34.6 27.9,25 30.6,29.1 33.3,29.1 		"/>
		<line id="XMLID_474_" class="st2" x1="35.4" y1="29.2" x2="37.5" y2="29.2"/>
		<line id="XMLID_473_" class="st2" x1="13.1" y1="29.2" x2="15.3" y2="29.2"/>
		<line id="XMLID_429_" class="st2" x1="8.7" y1="29.2" x2="10.8" y2="29.2"/>
		<path id="XMLID_441_" class="st2" d="M14.6,33.7l18.5,18.4l19-18.8c0.2-0.2,0.7-0.9,0.7-0.9c1.6-2.1,2.5-4.8,2.5-7.6
			c0-7.1-5.8-12.9-12.9-12.9c-3.6,0-6.9,1.5-9.2,3.9c-2.3-2.4-5.6-3.9-9.2-3.9c-7.1,0-12.9,5.8-12.9,12.9"/>
	</g>
</g>
<g id="Icon_text" class="st0">
	<g id="XMLID_50_" class="st3">
		<text id="XMLID_479_" transform="matrix(1 0 0 1 -164.7869 -77.6252)"><tspan x="0" y="0" class="st6 st7 st8">FITNESS</tspan><tspan x="-2.1" y="7" class="st6 st7 st8">TRACKER</tspan></text>
	</g>
	<g id="XMLID_58_" class="st3">
		<text id="XMLID_480_" transform="matrix(1 0 0 1 -75.4575 -77.6253)"><tspan x="0" y="0" class="st6 st7 st8">HEALTHY</tspan><tspan x="5.9" y="7" class="st6 st7 st8">FOOD</tspan></text>
	</g>
	<g id="XMLID_80_" class="st3">
		<text id="XMLID_481_" transform="matrix(1 0 0 1 16.3382 -77.6253)" class="st6 st7 st8">CYCLING</text>
	</g>
	<g id="XMLID_94_" class="st3">
		<text id="XMLID_482_" transform="matrix(1 0 0 1 117.4954 -77.6253)"><tspan x="0" y="0" class="st6 st7 st8">NO</tspan><tspan x="-14.9" y="7" class="st6 st7 st8">FAST FOOD</tspan></text>
	</g>
	<g id="XMLID_113_" class="st3">
		<text id="XMLID_483_" transform="matrix(1 0 0 1 198.2827 -77.6253)"><tspan x="0" y="0" class="st6 st7 st8">MUSCLE </tspan><tspan x="-0.5" y="7" class="st6 st7 st8">GROWTH</tspan></text>
	</g>
	<g id="XMLID_123_" class="st3">
		<text id="XMLID_484_" transform="matrix(1 0 0 1 106.4602 17.9166)" class="st6 st7 st8">FIT BODY</text>
	</g>
	<g id="XMLID_147_" class="st3">
		<text id="XMLID_485_" transform="matrix(1 0 0 1 -169.7112 17.9166)"><tspan x="0" y="0" class="st6 st7 st8">AMERICAN</tspan><tspan x="0.9" y="7" class="st6 st7 st8">FOOTBALL</tspan></text>
	</g>
	<g id="XMLID_166_" class="st3">
		<text id="XMLID_486_" transform="matrix(1 0 0 1 -72.9856 17.9168)"><tspan x="0" y="0" class="st6 st7 st8">WEIGHT</tspan><tspan x="2.7" y="7" class="st6 st7 st8">SCALE</tspan></text>
	</g>
	<g id="XMLID_36_" class="st3">
		<text id="XMLID_487_" transform="matrix(1 0 0 1 16.9677 17.9167)"><tspan x="0" y="0" class="st6 st7 st8">FITNESS</tspan><tspan x="7.7" y="7" class="st6 st7 st8">APP</tspan></text>
	</g>
	<g id="XMLID_194_" class="st3">
		<text id="XMLID_489_" transform="matrix(1 0 0 1 187.284 17.9166)" class="st6 st7 st8">SUPPLEMENTS</text>
	</g>
	<g id="XMLID_219_" class="st3">
		<text id="XMLID_490_" transform="matrix(1 0 0 1 -167.2789 113.9993)" class="st6 st7 st8">RUNNING</text>
	</g>
	<g id="XMLID_232_" class="st3">
		<text id="XMLID_491_" transform="matrix(1 0 0 1 -67.0109 113.9997)" class="st6 st7 st8">DIET</text>
	</g>
	<g id="XMLID_235_" class="st3">
		<text id="XMLID_492_" transform="matrix(1 0 0 1 9.0962 113.9993)" class="st6 st7 st8">BASKETBALL</text>
	</g>
	<g id="XMLID_266_" class="st3">
		<text id="XMLID_494_" transform="matrix(1 0 0 1 106.3029 113.9997)" class="st6 st7 st8">WEIGHTS</text>
	</g>
	<g id="XMLID_271_" class="st3">
		<text id="XMLID_509_" transform="matrix(1 0 0 1 187.4232 113.9993)" class="st6 st7 st8">ACHIEVEMENT</text>
	</g>
	<g id="XMLID_287_" class="st3">
		<text id="XMLID_510_" transform="matrix(1 0 0 1 -170.2231 210.9166)"><tspan x="0" y="0" class="st6 st7 st8">SWIMMING</tspan><tspan x="10.1" y="7" class="st6 st7 st8">POOL</tspan></text>
	</g>
	<g id="XMLID_315_" class="st3">
		<text id="XMLID_511_" transform="matrix(1 0 0 1 -76.4821 210.917)"><tspan x="0" y="0" class="st6 st7 st8">TRAINING</tspan><tspan x="1.1" y="7" class="st6 st7 st8">SHEDULE</tspan></text>
	</g>
	<g id="XMLID_331_" class="st3">
		<text id="XMLID_512_" transform="matrix(1 0 0 1 9.0931 210.9166)" class="st6 st7 st8">STOPWATCH</text>
	</g>
	<g id="XMLID_371_" class="st3">
		<text id="XMLID_513_" transform="matrix(1 0 0 1 102.2356 210.9166)"><tspan x="0" y="0" class="st6 st7 st8">TREADMILL</tspan><tspan x="3.3" y="7" class="st6 st7 st8">MACHINE</tspan></text>
	</g>
	<g id="XMLID_391_" class="st3">
		<text id="XMLID_514_" transform="matrix(1 0 0 1 198.6081 210.9163)"><tspan x="0" y="0" class="st6 st7 st8">VITAMIN</tspan><tspan x="3.2" y="7" class="st6 st7 st8">MEALS</tspan></text>
	</g>
	<g id="XMLID_405_" class="st3">
		<text id="XMLID_515_" transform="matrix(1 0 0 1 -164.3325 306.1667)" class="st6 st7 st8">BOXING</text>
	</g>
	<g id="XMLID_433_" class="st3">
		<text id="XMLID_516_" transform="matrix(1 0 0 1 -72.127 306.1667)" class="st6 st7 st8">WATER</text>
	</g>
	<g id="XMLID_442_" class="st3">
		<text id="XMLID_517_" transform="matrix(1 0 0 1 17.6011 306.1667)"><tspan x="0" y="0" class="st6 st7 st8">SPORTS</tspan><tspan x="4.3" y="7" class="st6 st7 st8">SHOE</tspan></text>
	</g>
	<g id="XMLID_471_" class="st3">
		<text id="XMLID_518_" transform="matrix(1 0 0 1 99.3093 306.1667)"><tspan x="0" y="0" class="st6 st7 st8">MESURMENT</tspan><tspan x="1.7" y="7" class="st6 st7 st8">BODY FORM</tspan></text>
	</g>
	<g id="XMLID_459_" class="st3">
		<text id="XMLID_519_" transform="matrix(1 0 0 1 199.5645 306.1665)"><tspan x="0" y="0" class="st6 st7 st8">CARDIO</tspan><tspan x="-4.7" y="7" class="st6 st7 st8">WORKOUT</tspan></text>
	</g>
</g>
<g id="headline" class="st0">
	<circle id="XMLID_61_" class="st9" cx="-133.5" cy="-208.4" r="18.3"/>
	<circle id="XMLID_60_" class="st10" cx="-110.1" cy="-208.4" r="18.3"/>
	<circle id="XMLID_63_" class="st11" cx="-122.7" cy="-190.1" r="18.3"/>
	<g id="XMLID_1_" class="st3">
		<text id="XMLID_520_" transform="matrix(1 0 0 1 -183.7552 -194.0852)"><tspan x="0" y="0" style="fill:#231F20; font-family:'Oswald-Bold'; font-size:22.512px;">FLAT </tspan><tspan x="45.5" y="0" style="fill:#231F20; font-family:'Oswald-Light'; font-size:22.512px;">LINE </tspan><tspan x="83.9" y="0" style="fill:#231F20; font-family:'Oswald-Bold'; font-size:22.512px;">ICONS</tspan></text>
	</g>
	<g id="XMLID_2_" class="st3">
		
			<text id="XMLID_521_" transform="matrix(1 0 0 1 130.8216 -193.9056)" style="fill:#231F20; font-family:'Oswald-Light'; font-size:16.1735px;">FITNESS &amp; SPORTS</text>
	</g>
</g>
</svg>
